<svg id="Capa_1" data-name="Capa 1" xmlns="http://www.w3.org/2000/svg" viewBox="0 0 214.57 33.95"><defs><style>.cls-1{fill:#9d9d9c;}.cls-2{fill:none;stroke:#000;stroke-miterlimit:10;stroke-width:2.77px;}</style></defs><path d="M13.12,11.24h2.8v1.68H16a5.46,5.46,0,0,1,1.6-1.45A4.46,4.46,0,0,1,19.86,11a4.69,4.69,0,0,1,1.24.12v1.72a.83.83,0,0,1-.2,0c-.4,0-.84-.06-1.31-.06a4.84,4.84,0,0,0-1.2.16,4.46,4.46,0,0,0-1.2.49,3,3,0,0,0-.92.85,2.07,2.07,0,0,0-.35,1.17V22.5h-2.8Z"/><path d="M24,17.08c0,.62,0,1.14.06,1.57A3.69,3.69,0,0,0,24.44,20a2.53,2.53,0,0,0,1,1.05,4,4,0,0,0,1.92.39A3.88,3.88,0,0,0,29,21.13a2.33,2.33,0,0,0,.93-.67,2.23,2.23,0,0,0,.44-.83,3.08,3.08,0,0,0,.12-.83h2.8A3.32,3.32,0,0,1,33,20a4,4,0,0,1-1,1.31,5,5,0,0,1-1.85,1.06,8.8,8.8,0,0,1-2.92.42q-3.24,0-4.72-1.42A5.74,5.74,0,0,1,21,17a9.28,9.28,0,0,1,.25-2.25,5,5,0,0,1,.92-1.9,4.51,4.51,0,0,1,1.95-1.4A8.7,8.7,0,0,1,27.41,11a8.71,8.71,0,0,1,3.15.47,4.13,4.13,0,0,1,1.84,1.26,4,4,0,0,1,.8,1.68,10.11,10.11,0,0,1,.18,2v.72Zm6.48-1.39v-.61a3.32,3.32,0,0,0-.16-1,2.21,2.21,0,0,0-.5-.88,2.67,2.67,0,0,0-1-.63,4.16,4.16,0,0,0-1.49-.24,3.67,3.67,0,0,0-1.7.34,2.53,2.53,0,0,0-1,.82,2.86,2.86,0,0,0-.46.95,4,4,0,0,0-.11.83v.42Z"/><path d="M35.09,11.24h2.67v1.32h.06a3.46,3.46,0,0,1,1.76-1.18A7.59,7.59,0,0,1,42.16,11a8.3,8.3,0,0,1,2.66.34,3.13,3.13,0,0,1,1.42.89,2.37,2.37,0,0,1,.53,1.08,6.7,6.7,0,0,1,.1,1.26v8h-2.8V14.73a4.76,4.76,0,0,0-.07-.8,1.66,1.66,0,0,0-.32-.69,1.78,1.78,0,0,0-.8-.56,3.91,3.91,0,0,0-1.45-.22A5.25,5.25,0,0,0,39,13a1.81,1.81,0,0,0-1.1,1.7V22.5h-2.8Z"/><path d="M48.74,14.64a3.05,3.05,0,0,1,1.42-2.81A9,9,0,0,1,54.75,11a12,12,0,0,1,3.07.31,3.79,3.79,0,0,1,1.64.81,2,2,0,0,1,.61,1,4.72,4.72,0,0,1,.12,1.13v6.28a1.2,1.2,0,0,0,.15.68c.1.15.34.22.72.22a1.72,1.72,0,0,0,.67-.1v1.26h0l-.76.07-.84,0c-.35,0-.66,0-.92,0a2.59,2.59,0,0,1-.73-.17,1.42,1.42,0,0,1-.6-.44,1.4,1.4,0,0,1-.29-.81h-.06a4.66,4.66,0,0,1-1.86,1.18,7,7,0,0,1-2.45.44,6.36,6.36,0,0,1-3.65-.86,2.77,2.77,0,0,1-1.22-2.42,2.63,2.63,0,0,1,.83-2,4.92,4.92,0,0,1,2.54-1.11l3.77-.72a3.89,3.89,0,0,0,1.72-.59A1.55,1.55,0,0,0,57.49,14c0-1.1-1-1.66-2.87-1.66a4.75,4.75,0,0,0-1.72.26,2.11,2.11,0,0,0-.94.65,1.87,1.87,0,0,0-.35.69,3.26,3.26,0,0,0-.07.61v.1Zm8.65,1.72a3.42,3.42,0,0,1-1,.46c-.44.12-1,.24-1.76.38a17.58,17.58,0,0,0-2,.49,2.46,2.46,0,0,0-1,.67,1.71,1.71,0,0,0-.34,1.11,1.74,1.74,0,0,0,.61,1.43,3,3,0,0,0,1.93.5,4.88,4.88,0,0,0,2.51-.64,1.79,1.79,0,0,0,1.1-1.5Z"/><path d="M62.63,11.24H65.3v1.32h.07a3.43,3.43,0,0,1,1.75-1.18A7.61,7.61,0,0,1,69.71,11a8.28,8.28,0,0,1,2.65.34,3.08,3.08,0,0,1,1.42.89,2.28,2.28,0,0,1,.53,1.08,6.7,6.7,0,0,1,.1,1.26v8h-2.8V14.73a3.91,3.91,0,0,0-.07-.8,1.64,1.64,0,0,0-.31-.69,1.82,1.82,0,0,0-.81-.56A3.88,3.88,0,0,0,69,12.46a5.25,5.25,0,0,0-2.44.57,1.81,1.81,0,0,0-1.1,1.7V22.5h-2.8Z"/><path d="M88.5,21.78a3.91,3.91,0,0,1-1.6,3.5,7.94,7.94,0,0,1-4.47,1.08q-.74,0-1.56-.06A8.62,8.62,0,0,1,79.12,26a4.64,4.64,0,0,1-1.67-.85,2.46,2.46,0,0,1-.9-1.57h2.8a1.37,1.37,0,0,0,.89,1.08,5,5,0,0,0,2,.34,6.28,6.28,0,0,0,1.92-.23,2.38,2.38,0,0,0,1-.6,1.88,1.88,0,0,0,.42-.78,5,5,0,0,0,.08-.91V21h-.07a3,3,0,0,1-1.55,1.11,7.31,7.31,0,0,1-2.49.41,6.24,6.24,0,0,1-3-.62,4.38,4.38,0,0,1-1.71-1.54,5.44,5.44,0,0,1-.71-1.79,8.4,8.4,0,0,1-.17-1.68,8.66,8.66,0,0,1,.28-2.27,4.89,4.89,0,0,1,1-1.88,4.57,4.57,0,0,1,1.82-1.3A7.13,7.13,0,0,1,81.89,11a5.77,5.77,0,0,1,2.49.51,2.63,2.63,0,0,1,1.38,1.21h.07V11.24H88.5Zm-8.79-8.21a6.12,6.12,0,0,0-.72,3.3,9.93,9.93,0,0,0,.11,1.49,3.92,3.92,0,0,0,.47,1.29,2.74,2.74,0,0,0,1,1,3.43,3.43,0,0,0,1.66.36,4.77,4.77,0,0,0,1.82-.3,2.55,2.55,0,0,0,1.11-.86,3.29,3.29,0,0,0,.56-1.28,8.35,8.35,0,0,0,.15-1.67,8.9,8.9,0,0,0-.15-1.68,3.8,3.8,0,0,0-.56-1.39,2.85,2.85,0,0,0-1.11-1,3.86,3.86,0,0,0-1.79-.37A2.79,2.79,0,0,0,79.71,13.57Z"/><path d="M90.37,14.64a3.05,3.05,0,0,1,1.42-2.81A9,9,0,0,1,96.38,11a11.92,11.92,0,0,1,3.07.31,3.73,3.73,0,0,1,1.64.81,2.15,2.15,0,0,1,.62,1,5.34,5.34,0,0,1,.11,1.13v6.28a1.2,1.2,0,0,0,.15.68c.1.15.34.22.72.22a1.72,1.72,0,0,0,.67-.1v1.26h0l-.77.07-.84,0c-.35,0-.66,0-.91,0a2.58,2.58,0,0,1-.74-.17,1.42,1.42,0,0,1-.6-.44,1.33,1.33,0,0,1-.28-.81h-.07a4.62,4.62,0,0,1-1.85,1.18,7.09,7.09,0,0,1-2.46.44,6.36,6.36,0,0,1-3.65-.86,2.77,2.77,0,0,1-1.22-2.42,2.66,2.66,0,0,1,.83-2,5,5,0,0,1,2.54-1.11l3.77-.72a3.89,3.89,0,0,0,1.72-.59A1.55,1.55,0,0,0,99.12,14c0-1.1-1-1.66-2.87-1.66a4.79,4.79,0,0,0-1.72.26,2.11,2.11,0,0,0-.94.65,1.87,1.87,0,0,0-.35.69,3.23,3.23,0,0,0-.06.61v.1ZM99,16.36a3.42,3.42,0,0,1-1,.46c-.44.12-1,.24-1.76.38a17.58,17.58,0,0,0-2,.49,2.46,2.46,0,0,0-1,.67,1.71,1.71,0,0,0-.33,1.11,1.77,1.77,0,0,0,.6,1.43,3,3,0,0,0,1.93.5,4.88,4.88,0,0,0,2.51-.64,1.79,1.79,0,0,0,1.1-1.5Z"/><path d="M104.43,7.5h2.8v15h-2.8Z"/><path d="M108.2,11.24h3.07l3.34,9h.07l3.34-9h3.07L116.25,22.5H113Z"/><path d="M121.45,14.64a3.07,3.07,0,0,1,1.42-2.81,9,9,0,0,1,4.59-.88,12.06,12.06,0,0,1,3.08.31,3.74,3.74,0,0,1,1.63.81,2.07,2.07,0,0,1,.62,1,4.72,4.72,0,0,1,.12,1.13v6.28a1.2,1.2,0,0,0,.15.68c.1.15.34.22.71.22a1.68,1.68,0,0,0,.67-.1v1.26h0c-.22,0-.48.05-.77.07l-.83,0c-.36,0-.67,0-.92,0a2.66,2.66,0,0,1-.74-.17,1.42,1.42,0,0,1-.6-.44,1.4,1.4,0,0,1-.28-.81h-.07a4.55,4.55,0,0,1-1.85,1.18,7.09,7.09,0,0,1-2.46.44,6.36,6.36,0,0,1-3.65-.86A2.79,2.79,0,0,1,121,19.51a2.66,2.66,0,0,1,.83-2,5,5,0,0,1,2.54-1.11l3.77-.72a3.89,3.89,0,0,0,1.72-.59A1.5,1.5,0,0,0,130.2,14c0-1.1-1-1.66-2.87-1.66a4.79,4.79,0,0,0-1.72.26,2.13,2.13,0,0,0-.93.65,1.73,1.73,0,0,0-.35.69,2.6,2.6,0,0,0-.07.61v.1Zm8.65,1.72a3.42,3.42,0,0,1-1,.46c-.43.12-1,.24-1.75.38a16.46,16.46,0,0,0-2,.49,2.43,2.43,0,0,0-1,.67,1.71,1.71,0,0,0-.33,1.11,1.77,1.77,0,0,0,.6,1.43,3,3,0,0,0,1.94.5,4.87,4.87,0,0,0,2.5-.64,1.79,1.79,0,0,0,1.1-1.5Z"/><path d="M135.34,11.24H138v1.32h.07a3.48,3.48,0,0,1,1.75-1.18,7.69,7.69,0,0,1,2.59-.43,8.24,8.24,0,0,1,2.65.34,3.08,3.08,0,0,1,1.42.89,2.4,2.4,0,0,1,.54,1.08,7.66,7.66,0,0,1,.1,1.26v8h-2.81V14.73a4.83,4.83,0,0,0-.06-.8,1.66,1.66,0,0,0-.32-.69,1.78,1.78,0,0,0-.8-.56,3.91,3.91,0,0,0-1.45-.22,5.22,5.22,0,0,0-2.44.57,1.8,1.8,0,0,0-1.1,1.7V22.5h-2.81Z"/><path class="cls-1" d="M150.07,20.27h3.07V22.5h-3.07Z"/><path class="cls-1" d="M164.59,14.66A2.25,2.25,0,0,0,163.9,13a3,3,0,0,0-2.15-.68,5.12,5.12,0,0,0-1.34.17,2.61,2.61,0,0,0-1.1.65,3.28,3.28,0,0,0-.78,1.43,8.48,8.48,0,0,0-.29,2.41,11.25,11.25,0,0,0,.09,1.49,4.5,4.5,0,0,0,.4,1.35,2.54,2.54,0,0,0,1,1.13,3.53,3.53,0,0,0,1.89.44,3.63,3.63,0,0,0,1.45-.25,2.18,2.18,0,0,0,.9-.67,2.38,2.38,0,0,0,.45-.9,3.64,3.64,0,0,0,.14-1h2.8a3.62,3.62,0,0,1-.31,1.46,4.05,4.05,0,0,1-1,1.34,5,5,0,0,1-1.82,1,8.39,8.39,0,0,1-2.73.39q-3.24,0-4.73-1.42A5.74,5.74,0,0,1,155.31,17a9.28,9.28,0,0,1,.25-2.25,4.87,4.87,0,0,1,.92-1.9,4.51,4.51,0,0,1,2-1.4,8.64,8.64,0,0,1,3.25-.52,9.72,9.72,0,0,1,2.86.36,4.6,4.6,0,0,1,1.77.95,3.21,3.21,0,0,1,.85,1.2,3.49,3.49,0,0,1,.23,1.2Z"/><path class="cls-1" d="M168.36,14.54a4.63,4.63,0,0,1,1-1.86,5,5,0,0,1,2-1.27,10.88,10.88,0,0,1,6.26,0,4.79,4.79,0,0,1,2,1.27,4.71,4.71,0,0,1,1,1.86,8.43,8.43,0,0,1,.3,2.33,8.49,8.49,0,0,1-.3,2.33,4.63,4.63,0,0,1-1,1.86,5,5,0,0,1-2,1.27,10.88,10.88,0,0,1-6.26,0,4.79,4.79,0,0,1-2-1.27,4.71,4.71,0,0,1-1-1.86,8.49,8.49,0,0,1-.3-2.33A8.43,8.43,0,0,1,168.36,14.54Zm7.86,6.52a2.57,2.57,0,0,0,1.11-1,4.15,4.15,0,0,0,.53-1.42,9.76,9.76,0,0,0,.15-1.8,9.88,9.88,0,0,0-.15-1.81,4.31,4.31,0,0,0-.53-1.42,2.62,2.62,0,0,0-1.09-1,4.09,4.09,0,0,0-1.8-.35,3.65,3.65,0,0,0-1.72.36,2.53,2.53,0,0,0-1.05,1,4,4,0,0,0-.52,1.4,9.88,9.88,0,0,0-.15,1.81,9.73,9.73,0,0,0,.15,1.79,4.06,4.06,0,0,0,.52,1.42,2.53,2.53,0,0,0,1.05,1,3.66,3.66,0,0,0,1.72.35A4.1,4.1,0,0,0,176.22,21.06Z"/><path class="cls-1" d="M182.65,11.24h2.67v1.32h.07a3.43,3.43,0,0,1,1.75-1.18,7.65,7.65,0,0,1,2.59-.43,6.19,6.19,0,0,1,2.5.42,2.67,2.67,0,0,1,1.37,1.36,4.66,4.66,0,0,1,1.77-1.28,6,6,0,0,1,2.47-.5,8.24,8.24,0,0,1,2.65.34,3.08,3.08,0,0,1,1.42.89,2.4,2.4,0,0,1,.54,1.08,7.66,7.66,0,0,1,.1,1.26v8h-2.81V14.73a4.88,4.88,0,0,0-.06-.79,1.88,1.88,0,0,0-.3-.7,1.69,1.69,0,0,0-.74-.56,3.2,3.2,0,0,0-1.3-.22,6.33,6.33,0,0,0-1.12.11,4.19,4.19,0,0,0-1.08.38,2.26,2.26,0,0,0-.82.71,1.79,1.79,0,0,0-.32,1.07V22.5h-2.8V14.73a4.84,4.84,0,0,0-.07-.79,1.61,1.61,0,0,0-.3-.7,1.69,1.69,0,0,0-.74-.56,3.17,3.17,0,0,0-1.3-.22,6.43,6.43,0,0,0-1.12.11,4.19,4.19,0,0,0-1.08.38,2.35,2.35,0,0,0-.82.71,1.79,1.79,0,0,0-.32,1.07V22.5h-2.8Z"/><polyline class="cls-2" points="11.91 1.39 1.39 1.39 1.39 32.57 11.91 32.57"/><polyline class="cls-2" points="202.65 1.39 213.18 1.39 213.18 32.57 202.65 32.57"/></svg>