<svg xmlns="http://www.w3.org/2000/svg" xmlns:xlink="http://www.w3.org/1999/xlink" viewBox="0 0 213.22 126.81"><defs><style>.cls-1{fill:none;}.cls-2{fill:#135126;}.cls-3{opacity:0.7;}.cls-4{clip-path:url(#clip-path);}.cls-5{fill:#6bb53e;}.cls-6{clip-path:url(#clip-path-2);}.cls-7{fill:#8dbf37;}</style><clipPath id="clip-path"><rect class="cls-1" x="27.95" y="78.89" width="154.14" height="24.84"/></clipPath><clipPath id="clip-path-2"><rect class="cls-1" x="50.14" y="78.89" width="154.14" height="24.84"/></clipPath></defs><g id="Capa_2" data-name="Capa 2"><g id="Capa_1-2" data-name="Capa 1"><path class="cls-2" d="M85.34,78.19q-6,0-8.81-15.74a110.81,110.81,0,0,1-1.89-20.26q0-6.3.31-15c.07-2,.12-3.76.16-5.19s0-2.64,0-3.62c-.28.63-.74,2-1.37,4q-1.16,4.18-2.94,10.33t-4.2,14.43Q59.64,69.07,54,69.06q-7.45,0-10.91-22.15-.52-4.2-1.31-10.39T39.79,22q-1.15,1.16-5.56,15.11Q29.19,53,24.68,61q-7,12.38-15.85,12.38A10.67,10.67,0,0,1,0,68.64l.73-.53q3.68.73,5.88,1c1.47.21,2.38.32,2.73.32,2.23,0,4.58-1.09,7-3.26a24.74,24.74,0,0,0,5-6.29q6-10.6,10.91-26.87,5.14-17,5.14-28.34C37.48,1.58,38.53,0,40.63,0q2.1,0,6.4,3.15Q46,5.67,46,17.84q0,8.51.47,15.85T48,47.54q2.52,16.17,6.93,16.17,3,0,9.86-20.16,3-9,5.14-16.63T73.17,13a20.79,20.79,0,0,0,.1-2.52c0-1.18,0-2.76.11-4.72.07-2.31.52-3.6,1.36-3.88q8.72,0,9,2.73-1.47,3.26-3,20.46-.73,7.67-1,13.17c-.2,3.68-.31,6.63-.31,8.87q0,26.67,8.18,28.86c-.76,1.47-1.5,2.21-2.2,2.21"/><path class="cls-2" d="M103.59,69.22q-2,7.31-5.26,7.31c-3.1,0-4.56-3.82-4.41-11.48a61.43,61.43,0,0,1,2-10.22q2.28-8.17,3.85-8.18c2.31,0,3.77.61,4.4,1.81l1.42,2.83,2.75,1a59.29,59.29,0,0,0-2.67,14.07,11.69,11.69,0,0,0,.31,3.77c.42,1.84,1.08,2.76,2,2.76q2.67,0,7.31-19.35c.31-1.2.68-1.8,1.1-1.8s.63.39.63,1.18q0,2.9-2.91,11.87Q110.75,75,108.39,75q-2.91,0-4.8-5.74m0-16.28c-.21-2.41-.86-3.61-2-3.61q-1.34,0-2.36,3.77c-.21.58-.45,1.34-.71,2.28s-.57,2-.94,3.23a47.45,47.45,0,0,0-1.26,11.87A5.79,5.79,0,0,0,96.91,73c.47,1,1.08,1.5,1.81,1.5q1.48-.87,3.14-6.06c.42-1.36.79-2.63,1.1-3.81a20.65,20.65,0,0,0,.63-3.18l1-7.24Z"/><path class="cls-2" d="M136.46,63.56Q132.7,75,130.41,75q-2.91,0-4-5.58a43.81,43.81,0,0,1-.55-4.92q-.24-3.33-.47-8.61c-.27.95-.75,2.69-1.46,5.23s-1.58,5.94-2.63,10.18c-.52,2.26-1.34,3.39-2.44,3.39q-2.43,0-3-3.31l-.31-5.89a41.16,41.16,0,0,1,0-6.29l.24-2.91-.71-1.5a9,9,0,0,1,.39-2.83,1.89,1.89,0,0,1,2-1.26c1,0,1.57.48,1.57,1.42a8.22,8.22,0,0,1-.55,2,9.09,9.09,0,0,0-.47,2.52v1.81c0,.68,0,1.49-.08,2.44s-.08,1.78-.08,2.51v1.73c0,3.78.42,5.66,1.26,5.66q.39,0,1-2a57.46,57.46,0,0,1,1.65-6q1.11-3.54,1.81-6.52a32.82,32.82,0,0,0,.86-5.67c.16-2.2.53-3.51,1.1-3.93q4,.24,4,2.52,0-1.72-.24-.63c-.16.74-.37,2.44-.63,5.11s-.46,4.76-.59,6.41-.2,2.84-.2,3.58q0,8.49,2.21,8.49,1.88,0,4.56-8.34c.52-1.62,1-3.23,1.45-4.83s.85-3.21,1.22-4.84.78-2.43,1.26-2.43.63.39.63,1.18q0,2.19-2.76,10.69"/><path class="cls-2" d="M153.77,65.13q1.72-5.19,3.3-11.64c.31-1.2.68-1.8,1.1-1.8s.63.39.63,1.18q0,2.67-3.07,11.95-3.45,10.29-5.5,10.3-3.71,0-4.4-7.79c-.58,1.47-1.07,2.62-1.46,3.46s-.67,1.39-.82,1.65Q141.66,76,139.77,76c-1.63,0-2.88-1-3.77-3a11.88,11.88,0,0,1-1-5.19,50.1,50.1,0,0,1,2.44-14.31q2.76-8.88,5.74-8.88a4.11,4.11,0,0,1,2.44,1.18,16.43,16.43,0,0,0,1.57,1.1c.11,0,.21-.08.32-.24q.47-3.69,1.22-9.27t1.76-13.21c-.15-1.42.08-2.23.71-2.44a7.2,7.2,0,0,1,1.34-.08c1.26,0,1.78.79,1.57,2.36s-.71,3.71-1.18,6.25-1.05,5.54-1.73,9c0,.37-.23,1.77-.55,4.21s-.76,6-1.34,10.58c-.42,3.46-.74,6.29-1,8.49s-.35,3.74-.35,4.64c.1,3.72.71,5.68,1.81,5.89.94,0,2.28-2.64,4-7.94M139.53,56a41.13,41.13,0,0,0-1.8,10.14c0,5.09.57,7.63,1.73,7.63s2.49-1.94,4-5.82c.57-1.47,1.07-2.88,1.49-4.24s.76-2.68,1-3.94c.05-.31.11-.79.16-1.45s.13-1.51.23-2.56c.11-.83.19-1.58.24-2.24s.08-1.24.08-1.76c0-2.36-.79-3.54-2.36-3.54q-2.6,0-4.8,7.78"/><path class="cls-2" d="M163.84,69.22q-2.06,7.31-5.27,7.31-4.63,0-4.41-11.48a61.43,61.43,0,0,1,2-10.22q2.28-8.17,3.85-8.18c2.31,0,3.78.61,4.41,1.81l1.41,2.83,2.75,1a59.29,59.29,0,0,0-2.67,14.07,11.69,11.69,0,0,0,.31,3.77c.42,1.84,1.08,2.76,2,2.76q2.67,0,7.31-19.35c.32-1.2.68-1.8,1.1-1.8s.63.39.63,1.18q0,2.9-2.91,11.87Q171,75,168.63,75q-2.91,0-4.79-5.74m0-16.28c-.21-2.41-.87-3.61-2-3.61q-1.34,0-2.36,3.77c-.21.58-.45,1.34-.71,2.28s-.57,2-.94,3.23a47.45,47.45,0,0,0-1.26,11.87,5.94,5.94,0,0,0,.55,2.51c.47,1,1.08,1.5,1.81,1.5,1-.58,2-2.6,3.15-6.06.41-1.36.78-2.63,1.1-3.81a23.36,23.36,0,0,0,.63-3.18l.94-7.24Z"/><path class="cls-2" d="M182.16,72.36c-.47-.78-.73-2.38-.79-4.79q-.15-2.67,0-7.32l.16-6.28q0-1.89-3.85-3.86,0,2-1.89,8.42a5.42,5.42,0,0,1-.39.82,6,6,0,0,0-.4.83l-1-.32a25.34,25.34,0,0,1,1-5,21.56,21.56,0,0,0,1-5.58,10,10,0,0,0-.63-2.68,9.86,9.86,0,0,1-.63-2.75c0-2.62.65-3.93,2-3.93,1,0,1.59.81,1.65,2.44a5.14,5.14,0,0,1,0,1.06c0,.39-.07.85-.12,1.37s-.09,1.16-.12,1.58,0,.73,0,.94c0,.53,1.1,1.36,3.3,2.52s3.38,2.49,3.38,4c0,.89-.05,2-.15,3.26s-.27,2.79-.48,4.52-.36,3.16-.47,4.44-.15,2.38-.15,3.27q0,3.69,2.28,3.69,1.33,0,4.16-8.25a62.43,62.43,0,0,0,3.15-11.33c.16-1.2.52-1.8,1.1-1.8q.63,0,.63,1.17,0,2.69-3.07,12-3.47,10.29-5.5,10.3-2.44,0-4.09-2.76"/><path class="cls-2" d="M199.85,69.22q-2,7.31-5.26,7.31-4.64,0-4.41-11.48a61.43,61.43,0,0,1,2-10.22q2.28-8.17,3.85-8.18c2.31,0,3.78.61,4.4,1.81l1.42,2.83,2.75,1a59.29,59.29,0,0,0-2.67,14.07,11.69,11.69,0,0,0,.31,3.77c.42,1.84,1.08,2.76,2,2.76q2.67,0,7.31-19.35c.31-1.2.68-1.8,1.1-1.8s.63.39.63,1.18q0,2.9-2.91,11.87Q207,75,204.65,75q-2.91,0-4.8-5.74m0-16.28c-.21-2.41-.86-3.61-2-3.61q-1.33,0-2.36,3.77c-.21.58-.45,1.34-.71,2.28s-.57,2-.94,3.23a47.45,47.45,0,0,0-1.26,11.87,5.94,5.94,0,0,0,.55,2.51c.47,1,1.08,1.5,1.81,1.5,1-.58,2-2.6,3.14-6.06q.63-2,1.11-3.81a21.78,21.78,0,0,0,.62-3.18l1-7.24Z"/><path class="cls-2" d="M6.42,99.4S29.7,68.35,79.05,90.53s81.51-11.64,81.51-11.64-25.5,38.81-81.51,19.4S6.42,99.4,6.42,99.4"/><g class="cls-3"><g class="cls-4"><path class="cls-5" d="M28,99.4s23.29-31.05,72.63-8.87,81.51-11.64,81.51-11.64-25.51,38.81-81.51,19.4S28,99.4,28,99.4"/></g></g><g class="cls-3"><g class="cls-6"><path class="cls-7" d="M50.14,99.4s23.28-31.05,72.63-8.87,81.51-11.64,81.51-11.64-25.51,38.81-81.51,19.4S50.14,99.4,50.14,99.4"/></g></g><path class="cls-2" d="M1.43,118.67a13,13,0,0,1,.89-3.53,13.66,13.66,0,0,1,2.21-3,8.69,8.69,0,0,1,1-1A2.51,2.51,0,0,1,7,110.78a1.46,1.46,0,0,1,1.3.75,3,3,0,0,1,.47,1.6c0,.68-.59,1.81-1.77,3.41-.1.15-.94,1.21-2.53,3.18A1.51,1.51,0,0,0,5,120.84a1.74,1.74,0,0,0,1.18.52,5.19,5.19,0,0,0,3.06-1.12l.72,1.68a19.44,19.44,0,0,1-1.59,1.35,3.56,3.56,0,0,1-1.92.75,3.1,3.1,0,0,1-1.51.3,2.5,2.5,0,0,1-2.07-.95c-.51-.64-1-1.3-1.44-2a.8.8,0,0,0-.75.52A8.1,8.1,0,0,0,0,120.24a4.71,4.71,0,0,1,1.43-1.57m2.68-1.76c0,.15.07.23.19.23a5.39,5.39,0,0,0,.6-.6q1.17-1.25,1.17-1.8c0-.27-.08-.41-.26-.41s-.6.35-1,1.06a3.62,3.62,0,0,0-.66,1.52"/><path class="cls-2" d="M16.9,112.86a1.67,1.67,0,0,1,1.28-.56,1.79,1.79,0,0,1,1.17.41,1.34,1.34,0,0,1,.49,1.09,15.7,15.7,0,0,1-.72,4.3c-.42,1.42-.85,2.84-1.28,4.23l.15.15a6.24,6.24,0,0,0,1.1-.74l1.73-1.5.72,1.68c-1.11.92-1.93,1.58-2.45,2a11,11,0,0,1-2.53,1.68,2.52,2.52,0,0,1-.94.74l-1.21.49c-.28,0-.39-.29-.34-.71a9.69,9.69,0,0,1-.68-3.77,1.18,1.18,0,0,1,.49-.84,1.43,1.43,0,0,1,.91-.43c.05,0,.17.13.37.38a3,3,0,0,0,.23.26,13,13,0,0,0,.79-4.34c0-.32-.15-.49-.45-.49s-1.25.73-2.85,2.19A28.67,28.67,0,0,0,10,121.92a7.38,7.38,0,0,0-.71-1.68c.12-.15.75-.76,1.88-1.84L14.71,115c1.11-1,1.84-1.76,2.19-2.13"/><path class="cls-2" d="M27.27,111.31l-.22-.26H24.26L23.05,111c-.22-.07-.55-.2-1-.37l-.07-.3a5.15,5.15,0,0,1,.19-1.71,1.23,1.23,0,0,1,1.31-.82c.17,0,.75.09,1.73.19a12.34,12.34,0,0,0,1.38.08,9,9,0,0,0,2.14-.26c.4-.83.72-1.47.94-1.92.42-.85.89-1.29,1.39-1.35.62.13.94.45.94,1a14.71,14.71,0,0,1-.48,2.24,1.47,1.47,0,0,0,.44.53l0,.29v.57a4.21,4.21,0,0,1-.27,1.79,5.3,5.3,0,0,1-1.39.38Q28,118.11,28,121.92l.34.41c.3-.17,1.19-.87,2.68-2.09.17.38.43.94.75,1.69-.55.55-1.39,1.36-2.53,2.44a10.49,10.49,0,0,1-2.83,2,2.11,2.11,0,0,1-1.62-2,15.94,15.94,0,0,1,.59-3.53,15.62,15.62,0,0,0,.58-3.41l-.11-.11c-.2.15-.94.91-2.21,2.29-.91,1-1.6,1.73-2.08,2.28a7.71,7.71,0,0,0-.73-1.69q3.18-3.58,3.66-4.19a16,16,0,0,0,2.79-4.74"/><path class="cls-2" d="M32.48,118.67a12.74,12.74,0,0,1,.88-3.53,14.36,14.36,0,0,1,2.21-3,9.59,9.59,0,0,1,1-1,2.56,2.56,0,0,1,1.43-.37,1.45,1.45,0,0,1,1.3.75,2.88,2.88,0,0,1,.48,1.6c0,.68-.59,1.81-1.78,3.41q-.15.22-2.52,3.18a1.5,1.5,0,0,0,.58,1.12,1.78,1.78,0,0,0,1.19.52,5.18,5.18,0,0,0,3-1.12l.72,1.68a18.1,18.1,0,0,1-1.58,1.35,3.56,3.56,0,0,1-1.93.75,3.08,3.08,0,0,1-1.51.3,2.5,2.5,0,0,1-2.07-.95c-.5-.64-1-1.3-1.43-2a.82.82,0,0,0-.76.52,7.16,7.16,0,0,0-.72-1.68,4.75,4.75,0,0,1,1.44-1.57m2.68-1.76c0,.15.06.23.18.23a5.92,5.92,0,0,0,.61-.6q1.17-1.25,1.17-1.8c0-.27-.09-.41-.27-.41s-.59.35-1,1.06a3.62,3.62,0,0,0-.66,1.52"/><path class="cls-2" d="M46.77,111.31l-.22-.26H43.76L42.55,111c-.22-.07-.55-.2-1-.37l-.07-.3a5.15,5.15,0,0,1,.19-1.71,1.24,1.24,0,0,1,1.31-.82c.18,0,.75.09,1.73.19a12.48,12.48,0,0,0,1.38.08,9,9,0,0,0,2.14-.26c.4-.83.72-1.47.94-1.92.43-.85.89-1.29,1.39-1.35.62.13.94.45.94,1a14.71,14.71,0,0,1-.48,2.24,1.47,1.47,0,0,0,.44.53l0,.29v.57a4.21,4.21,0,0,1-.27,1.79,5.3,5.3,0,0,1-1.39.38q-2.37,6.81-2.37,10.62l.34.41c.3-.17,1.19-.87,2.68-2.09.18.38.43.94.75,1.69-.55.55-1.39,1.36-2.52,2.44a10.81,10.81,0,0,1-2.83,2,2.13,2.13,0,0,1-1.63-2,15.94,15.94,0,0,1,.59-3.53,15.62,15.62,0,0,0,.58-3.41l-.11-.11c-.2.15-.94.91-2.21,2.29-.91,1-1.6,1.73-2.08,2.28a7.71,7.71,0,0,0-.73-1.69q3.18-3.58,3.66-4.19a16,16,0,0,0,2.79-4.74"/><path class="cls-2" d="M55.11,115.86c.75,0,1.32.5,1.7,1.51,0,.07.21,1,.64,2.85.23,1,.55,1.51,1,1.51a2.27,2.27,0,0,0,1.4-.5c.42-.33.84-.66,1.24-1l.76,1.69a19.73,19.73,0,0,1-1.93,1.5,5.9,5.9,0,0,1-2,1.17,3.37,3.37,0,0,1-2.16-.53,4.82,4.82,0,0,1-1.19-2c-.23-.35-.56-.87-1-1.58l-.27-.11c-.42,0-1.09.53-2,1.57a7.57,7.57,0,0,0-.71-1.68,13,13,0,0,1,2.22-2.45c1.33-1.29,2.11-1.93,2.34-1.93m4-9.35-.41,1.83a10.55,10.55,0,0,0-.38,1,3.36,3.36,0,0,1-1.7,1.35,1.15,1.15,0,0,1-.45.15l-.94,0c-.51,0-.76-.53-.76-1.53a3.11,3.11,0,0,1,.64-1.31c.43-.63.75-.94,1-.94l.3,0,.19-.3a2,2,0,0,1,1.81-.83c.5,0,.75.22.75.64"/><path class="cls-2" d="M61.83,119.22q7.5-6,9.31-6a.84.84,0,0,1,.64.38l0,.86c0,.6-.63,1.33-1.81,2.21l-3.29,2.39a4.23,4.23,0,0,0-1.77,3q0,1.65,2.07,1.65a5.59,5.59,0,0,0,3-1.4c.5-.37,1.41-1.08,2.72-2.12a7.23,7.23,0,0,1,.75,1.68c-.55.45-1,.83-1.43,1.13a10.93,10.93,0,0,1-1.58,1,.84.84,0,0,0-.23.18l-.26.26a6.61,6.61,0,0,1-4.87,1.8,3.45,3.45,0,0,1-2.4-1,3.14,3.14,0,0,1-1.07-2.33,2.16,2.16,0,0,1,.09-.52,1.81,1.81,0,0,0,.1-.49,8.1,8.1,0,0,0-.72-1.68,11,11,0,0,1,.76-1"/><path class="cls-2" d="M84.55,112.79a14.15,14.15,0,0,1-2.6,2.92l-3.06,2.92a12.21,12.21,0,0,0-2.57,3.18l.12.15a11.05,11.05,0,0,0,2.6-1.91q3.31-3,4.22-3c.53,0,.8.59.8,1.79,0,.15,0,.37,0,.65s0,.51,0,.66a1.38,1.38,0,0,0,.36.91,1.06,1.06,0,0,0,.85.43c.15,0,.42-.17.83-.52.25-.25.51-.5.79-.75l.76,1.68c-.71.7-1.29,1.24-1.74,1.61a3.32,3.32,0,0,1-2.11.83,2.17,2.17,0,0,1-2-1c-.28-.82-.54-1.66-.79-2.5-1.87,1.71-2.92,2.67-3.17,2.87q-2.54,2.13-3.51,2.13a1.52,1.52,0,0,1-1.7-1.73,2.72,2.72,0,0,1,.83-1.83l0-.18a3.77,3.77,0,0,0-.3-.94,5.27,5.27,0,0,0-.46-1,14.49,14.49,0,0,1,2.23-1.91l.49-.64a21,21,0,0,1,3.89-3.4q3.27-2.43,4.34-2.43c.42,0,.74.31.94.94"/><path class="cls-2" d="M40.64,106.39a2.17,2.17,0,0,1,.58-.36c.49-.17.55.35.72.81.31.9.39,1-.44,1.17a7,7,0,0,0-1.66.69,10.56,10.56,0,0,0-1.75,1.15,2,2,0,0,1-.6.41c-.14,0-.28.07-.33-.11a1.61,1.61,0,0,1,.3-1.12,13.37,13.37,0,0,1,2.13-1.82Z"/></g></g></svg>