<svg id="Capa_1" data-name="Capa 1" xmlns="http://www.w3.org/2000/svg" viewBox="0 0 209.27 33.92"><defs><style>.cls-1{fill:#9d9d9c;}.cls-2{fill:none;stroke:#000;stroke-miterlimit:10;stroke-width:2.74px;}</style></defs><path d="M16.93,11.22h2.8V12.9h.07a5.6,5.6,0,0,1,1.6-1.45,4.46,4.46,0,0,1,2.27-.52,4.23,4.23,0,0,1,1.24.13v1.72l-.2,0a10.63,10.63,0,0,0-1.3-.07,5.37,5.37,0,0,0-1.21.16,4.81,4.81,0,0,0-1.2.49,3,3,0,0,0-.92.85,2.09,2.09,0,0,0-.35,1.17v7.12h-2.8Z"/><path d="M27.78,17.06a14.3,14.3,0,0,0,.07,1.58,3.48,3.48,0,0,0,.4,1.3,2.53,2.53,0,0,0,1.05,1,4,4,0,0,0,1.92.4,3.7,3.7,0,0,0,1.55-.28,2.44,2.44,0,0,0,.94-.67,2.28,2.28,0,0,0,.43-.83,3,3,0,0,0,.12-.83h2.8a3.13,3.13,0,0,1-.28,1.2,4,4,0,0,1-1,1.31A5.14,5.14,0,0,1,34,22.35a8.8,8.8,0,0,1-2.92.42q-3.24,0-4.72-1.41A5.78,5.78,0,0,1,24.84,17a9.94,9.94,0,0,1,.25-2.25,5.24,5.24,0,0,1,.92-1.9A4.64,4.64,0,0,1,28,11.45a8.7,8.7,0,0,1,3.26-.52,8.94,8.94,0,0,1,3.15.47,4.23,4.23,0,0,1,1.84,1.26,4.06,4.06,0,0,1,.8,1.68,10.28,10.28,0,0,1,.18,2v.71Zm6.48-1.38v-.61a3.38,3.38,0,0,0-.15-1,2.38,2.38,0,0,0-.5-.87,2.55,2.55,0,0,0-1-.63,4.11,4.11,0,0,0-1.49-.25,3.81,3.81,0,0,0-1.7.34A2.66,2.66,0,0,0,28,14.43a3.39,3.39,0,0,0-.12.83v.42Z"/><path d="M38.9,11.22h2.67v1.33h.06a3.48,3.48,0,0,1,1.76-1.19A7.59,7.59,0,0,1,46,10.93a8,8,0,0,1,2.66.35,3.07,3.07,0,0,1,1.42.88,2.32,2.32,0,0,1,.53,1.08,6.7,6.7,0,0,1,.1,1.26v8h-2.8V14.71a4,4,0,0,0-.07-.8,1.55,1.55,0,0,0-.32-.69,1.73,1.73,0,0,0-.8-.56,3.88,3.88,0,0,0-1.45-.22A5.25,5.25,0,0,0,42.8,13a1.82,1.82,0,0,0-1.1,1.7v7.77H38.9Z"/><path d="M52.55,14.63A3.09,3.09,0,0,1,54,11.81a9,9,0,0,1,4.59-.88,11.92,11.92,0,0,1,3.07.31,3.73,3.73,0,0,1,1.64.81,2.2,2.2,0,0,1,.62,1A5.34,5.34,0,0,1,64,14.16v6.28a1.26,1.26,0,0,0,.15.69c.1.14.34.22.72.22a1.69,1.69,0,0,0,.67-.11V22.5h0l-.77.07a8.13,8.13,0,0,1-.84,0,8,8,0,0,1-.91,0,2.57,2.57,0,0,1-.74-.16,1.53,1.53,0,0,1-.6-.45,1.33,1.33,0,0,1-.28-.8H61.3a4.6,4.6,0,0,1-1.85,1.17,6.86,6.86,0,0,1-2.46.44,6.29,6.29,0,0,1-3.65-.86,2.77,2.77,0,0,1-1.22-2.41,2.67,2.67,0,0,1,.83-2,5,5,0,0,1,2.54-1.11l3.77-.71A4,4,0,0,0,61,15.09,1.56,1.56,0,0,0,61.3,14c0-1.1-1-1.66-2.87-1.66a4.56,4.56,0,0,0-1.72.27,2.16,2.16,0,0,0-.94.64,1.87,1.87,0,0,0-.35.69,3.23,3.23,0,0,0-.06.61v.11Zm8.65,1.72a3.68,3.68,0,0,1-1.05.45c-.44.12-1,.25-1.76.39a16.06,16.06,0,0,0-2,.48,2.56,2.56,0,0,0-1,.67,1.72,1.72,0,0,0-.33,1.12,1.74,1.74,0,0,0,.6,1.42,3,3,0,0,0,1.93.51,5,5,0,0,0,2.51-.64,1.82,1.82,0,0,0,1.1-1.5Z"/><path d="M66.44,11.22h2.67v1.33h.07a3.44,3.44,0,0,1,1.75-1.19,7.65,7.65,0,0,1,2.59-.43,7.93,7.93,0,0,1,2.65.35,3.07,3.07,0,0,1,1.42.88,2.45,2.45,0,0,1,.54,1.08,7.66,7.66,0,0,1,.1,1.26v8H75.42V14.71a4,4,0,0,0-.07-.8,1.64,1.64,0,0,0-.31-.69,1.84,1.84,0,0,0-.8-.56,4,4,0,0,0-1.46-.22,5.18,5.18,0,0,0-2.43.57,1.81,1.81,0,0,0-1.11,1.7v7.77h-2.8Z"/><path d="M92.31,21.77a3.89,3.89,0,0,1-1.6,3.49,7.94,7.94,0,0,1-4.47,1.08c-.49,0-1,0-1.55-.06A9.39,9.39,0,0,1,82.93,26a4.66,4.66,0,0,1-1.67-.86,2.44,2.44,0,0,1-.9-1.57h2.81a1.34,1.34,0,0,0,.88,1.08A5,5,0,0,0,86,25,6.61,6.61,0,0,0,88,24.73,2.37,2.37,0,0,0,89,24.12a1.76,1.76,0,0,0,.42-.78,4.94,4.94,0,0,0,.08-.9V21h-.07a2.91,2.91,0,0,1-1.55,1.1,7.22,7.22,0,0,1-2.49.41,6.24,6.24,0,0,1-3-.62,4.19,4.19,0,0,1-1.7-1.53,5.39,5.39,0,0,1-.72-1.8,9.2,9.2,0,0,1-.17-1.68,8.66,8.66,0,0,1,.29-2.27,4.94,4.94,0,0,1,1-1.88,4.75,4.75,0,0,1,1.82-1.3,7.32,7.32,0,0,1,2.77-.47,5.77,5.77,0,0,1,2.49.51,2.7,2.7,0,0,1,1.39,1.21h.06V11.22h2.67Zm-8.79-8.22a6.17,6.17,0,0,0-.72,3.3,8.73,8.73,0,0,0,.12,1.49,3.69,3.69,0,0,0,.46,1.29,2.69,2.69,0,0,0,1,1A3.25,3.25,0,0,0,86,21a4.58,4.58,0,0,0,1.82-.31A2.58,2.58,0,0,0,89,19.8a3.43,3.43,0,0,0,.55-1.28,8.28,8.28,0,0,0,.15-1.67,8.9,8.9,0,0,0-.15-1.68A3.84,3.84,0,0,0,89,13.79a2.82,2.82,0,0,0-1.12-1,3.86,3.86,0,0,0-1.79-.37A2.81,2.81,0,0,0,83.52,13.55Z"/><path d="M94.18,14.63a3.09,3.09,0,0,1,1.42-2.82,9,9,0,0,1,4.59-.88,12.06,12.06,0,0,1,3.08.31,3.74,3.74,0,0,1,1.63.81,2.2,2.2,0,0,1,.62,1,4.72,4.72,0,0,1,.12,1.13v6.28a1.26,1.26,0,0,0,.15.69c.1.14.34.22.71.22a1.66,1.66,0,0,0,.67-.11V22.5h0c-.22,0-.48.05-.77.07a9.57,9.57,0,0,1-1.75,0,2.64,2.64,0,0,1-.74-.16,1.53,1.53,0,0,1-.6-.45,1.33,1.33,0,0,1-.28-.8h-.07a4.53,4.53,0,0,1-1.85,1.17,6.86,6.86,0,0,1-2.46.44A6.29,6.29,0,0,1,95,21.91a2.79,2.79,0,0,1-1.22-2.41,2.67,2.67,0,0,1,.83-2,5,5,0,0,1,2.54-1.11l3.77-.71a4,4,0,0,0,1.72-.59,1.52,1.52,0,0,0,.32-1.12c0-1.1-1-1.66-2.87-1.66a4.56,4.56,0,0,0-1.72.27,2.06,2.06,0,0,0-.93.64,1.73,1.73,0,0,0-.35.69,2.6,2.6,0,0,0-.07.61v.11Zm8.65,1.72a3.68,3.68,0,0,1-1,.45c-.43.12-1,.25-1.75.39a15.13,15.13,0,0,0-2,.48,2.53,2.53,0,0,0-1,.67,1.72,1.72,0,0,0-.33,1.12,1.74,1.74,0,0,0,.6,1.42,3,3,0,0,0,1.94.51,5,5,0,0,0,2.5-.64,1.82,1.82,0,0,0,1.1-1.5Z"/><path d="M108.24,7.48H111v15h-2.8Z"/><path d="M112,11.22h3.07l3.34,9h.07l3.34-9h3.07l-4.84,11.26h-3.21Z"/><path d="M125.27,14.63a3.07,3.07,0,0,1,1.42-2.82,9,9,0,0,1,4.59-.88,12,12,0,0,1,3.07.31,3.74,3.74,0,0,1,1.63.81,2.11,2.11,0,0,1,.62,1,4.72,4.72,0,0,1,.12,1.13v6.28a1.26,1.26,0,0,0,.15.69c.1.14.34.22.72.22a1.64,1.64,0,0,0,.66-.11V22.5h0c-.22,0-.48.05-.77.07a8.07,8.07,0,0,1-.83,0,8.19,8.19,0,0,1-.92,0,2.64,2.64,0,0,1-.74-.16,1.53,1.53,0,0,1-.6-.45,1.39,1.39,0,0,1-.28-.8H134a4.53,4.53,0,0,1-1.85,1.17,6.85,6.85,0,0,1-2.45.44,6.3,6.3,0,0,1-3.66-.86,2.79,2.79,0,0,1-1.22-2.41,2.64,2.64,0,0,1,.84-2,4.88,4.88,0,0,1,2.53-1.11l3.78-.71a4.14,4.14,0,0,0,1.72-.59A1.56,1.56,0,0,0,134,14c0-1.1-.95-1.66-2.87-1.66a4.59,4.59,0,0,0-1.72.27,2.12,2.12,0,0,0-.93.64,1.73,1.73,0,0,0-.35.69,2.6,2.6,0,0,0-.07.61v.11Zm8.64,1.72a3.45,3.45,0,0,1-1,.45c-.43.12-1,.25-1.75.39a15.13,15.13,0,0,0-2,.48,2.6,2.6,0,0,0-1,.67,1.72,1.72,0,0,0-.33,1.12,1.74,1.74,0,0,0,.6,1.42,3,3,0,0,0,1.94.51,5,5,0,0,0,2.5-.64,1.8,1.8,0,0,0,1.1-1.5Z"/><path d="M139.15,11.22h2.68v1.33h.06a3.49,3.49,0,0,1,1.75-1.19,7.69,7.69,0,0,1,2.59-.43,8,8,0,0,1,2.66.35,3.12,3.12,0,0,1,1.42.88,2.53,2.53,0,0,1,.53,1.08,6.7,6.7,0,0,1,.1,1.26v8h-2.8V14.71a4.86,4.86,0,0,0-.07-.8,1.66,1.66,0,0,0-.32-.69,1.78,1.78,0,0,0-.8-.56,3.91,3.91,0,0,0-1.45-.22,5.25,5.25,0,0,0-2.44.57,1.82,1.82,0,0,0-1.1,1.7v7.77h-2.81Z"/><path class="cls-1" d="M153.88,20.25H157v2.23h-3.07Z"/><path class="cls-1" d="M159.89,11.22h2.67v1.33h.06a3.48,3.48,0,0,1,1.76-1.19,7.59,7.59,0,0,1,2.58-.43,8,8,0,0,1,2.66.35,3.07,3.07,0,0,1,1.42.88,2.42,2.42,0,0,1,.53,1.08,6.7,6.7,0,0,1,.1,1.26v8h-2.8V14.71a4,4,0,0,0-.07-.8,1.55,1.55,0,0,0-.32-.69,1.73,1.73,0,0,0-.8-.56,3.88,3.88,0,0,0-1.45-.22,5.25,5.25,0,0,0-2.44.57,1.82,1.82,0,0,0-1.1,1.7v7.77h-2.8Z"/><path class="cls-1" d="M176.31,17.06c0,.62,0,1.14.07,1.58a3.67,3.67,0,0,0,.4,1.3,2.53,2.53,0,0,0,1.05,1,4,4,0,0,0,1.92.4,3.7,3.7,0,0,0,1.55-.28,2.23,2.23,0,0,0,1.37-1.5,3,3,0,0,0,.12-.83h2.8a3.13,3.13,0,0,1-.28,1.2,4,4,0,0,1-.95,1.31,5.09,5.09,0,0,1-1.85,1.06,8.84,8.84,0,0,1-2.92.42q-3.24,0-4.73-1.41A5.78,5.78,0,0,1,173.38,17a9.4,9.4,0,0,1,.25-2.25,5.06,5.06,0,0,1,.91-1.9,4.61,4.61,0,0,1,2-1.4,8.64,8.64,0,0,1,3.25-.52,9,9,0,0,1,3.16.47,4.25,4.25,0,0,1,1.83,1.26,4.06,4.06,0,0,1,.8,1.68,9.53,9.53,0,0,1,.19,2v.71Zm6.48-1.38v-.61a3.38,3.38,0,0,0-.15-1,2.38,2.38,0,0,0-.5-.87,2.48,2.48,0,0,0-1-.63,4.09,4.09,0,0,0-1.48-.25,3.85,3.85,0,0,0-1.71.34,2.69,2.69,0,0,0-1,.82,3,3,0,0,0-.45,1,3.39,3.39,0,0,0-.12.83v.42Z"/><path class="cls-1" d="M188.26,8h2.81v3.27h3.1v1.39h-3.1v7.22a1.15,1.15,0,0,0,.38,1,2.63,2.63,0,0,0,1.46.28c.31,0,.65,0,1,0l.2,0v1.45a20.84,20.84,0,0,1-2.27.13,5.28,5.28,0,0,1-2.84-.54,1.93,1.93,0,0,1-.77-1.69V12.61h-2.6V11.22h2.6Z"/><polyline class="cls-2" points="11.63 1.37 1.37 1.37 1.37 32.55 11.63 32.55"/><polyline class="cls-2" points="197.63 1.37 207.9 1.37 207.9 32.55 197.63 32.55"/></svg>